<mxfile host="app.diagrams.net" agent="Mozilla/5.0 (Windows NT 10.0; Win64; x64) AppleWebKit/537.36 (KHTML, like Gecko) Chrome/140.0.0.0 Safari/537.36" version="28.2.4">
  <diagram name="Page-1" id="6ewY4YfZ4FFP999yhbCg">
    <mxGraphModel dx="1042" dy="561" grid="1" gridSize="10" guides="1" tooltips="1" connect="1" arrows="1" fold="1" page="1" pageScale="1" pageWidth="850" pageHeight="1100" math="0" shadow="0">
      <root>
        <mxCell id="0" />
        <mxCell id="1" parent="0" />
        <mxCell id="5fhwfnAbCSoT8pu6Vu3y-3" value="" style="rounded=0;whiteSpace=wrap;html=1;fillColor=none;dashed=1;strokeColor=light-dark(#828282, #3e3e3e);" parent="1" vertex="1">
          <mxGeometry x="320" y="80" width="840" height="680" as="geometry" />
        </mxCell>
        <mxCell id="5fhwfnAbCSoT8pu6Vu3y-4" value="Data Warehouse" style="rounded=0;whiteSpace=wrap;html=1;fontSize=24;" parent="1" vertex="1">
          <mxGeometry x="640" y="60" width="200" height="40" as="geometry" />
        </mxCell>
        <mxCell id="5fhwfnAbCSoT8pu6Vu3y-5" value="" style="rounded=0;whiteSpace=wrap;html=1;fillColor=none;dashed=1;strokeColor=light-dark(#828282, #3e3e3e);" parent="1" vertex="1">
          <mxGeometry x="1240.5" y="80" width="200" height="680" as="geometry" />
        </mxCell>
        <mxCell id="5fhwfnAbCSoT8pu6Vu3y-6" value="Target" style="rounded=0;whiteSpace=wrap;html=1;fontSize=24;" parent="1" vertex="1">
          <mxGeometry x="1280.5" y="60" width="120" height="40" as="geometry" />
        </mxCell>
        <mxCell id="5fhwfnAbCSoT8pu6Vu3y-7" value="&lt;font style=&quot;font-size: 20px;&quot;&gt;Bronze Layer&lt;/font&gt;" style="rounded=0;whiteSpace=wrap;html=1;fontSize=24;fillColor=#a0522d;strokeColor=#6D1F00;fontColor=#ffffff;" parent="1" vertex="1">
          <mxGeometry x="380" y="160" width="160" height="30" as="geometry" />
        </mxCell>
        <mxCell id="5fhwfnAbCSoT8pu6Vu3y-8" value="" style="rounded=1;whiteSpace=wrap;html=1;fillColor=none;fontColor=#ffffff;strokeColor=#6D1F00;" parent="1" vertex="1">
          <mxGeometry x="360" y="200" width="200" height="520" as="geometry" />
        </mxCell>
        <mxCell id="5fhwfnAbCSoT8pu6Vu3y-10" value="&lt;font style=&quot;font-size: 20px;&quot;&gt;Silver Layer&lt;/font&gt;" style="rounded=0;whiteSpace=wrap;html=1;fontSize=24;fillColor=#f5f5f5;strokeColor=#666666;gradientColor=#b3b3b3;" parent="1" vertex="1">
          <mxGeometry x="660" y="160" width="160" height="30" as="geometry" />
        </mxCell>
        <mxCell id="5fhwfnAbCSoT8pu6Vu3y-11" value="" style="rounded=1;whiteSpace=wrap;html=1;fillColor=none;gradientColor=#b3b3b3;strokeColor=#666666;" parent="1" vertex="1">
          <mxGeometry x="640" y="200" width="200" height="520" as="geometry" />
        </mxCell>
        <mxCell id="5fhwfnAbCSoT8pu6Vu3y-12" value="&lt;font style=&quot;font-size: 20px;&quot;&gt;Gold Layer&lt;/font&gt;" style="rounded=0;whiteSpace=wrap;html=1;fontSize=24;fillColor=#fff2cc;strokeColor=#d6b656;gradientColor=#ffd966;" parent="1" vertex="1">
          <mxGeometry x="940" y="160" width="160" height="30" as="geometry" />
        </mxCell>
        <mxCell id="5fhwfnAbCSoT8pu6Vu3y-13" value="" style="rounded=1;whiteSpace=wrap;html=1;fillColor=none;gradientColor=#ffd966;strokeColor=#d6b656;" parent="1" vertex="1">
          <mxGeometry x="920" y="200" width="200" height="520" as="geometry" />
        </mxCell>
        <mxCell id="5fhwfnAbCSoT8pu6Vu3y-16" value="" style="endArrow=none;html=1;rounded=0;exitX=1.022;exitY=0.482;exitDx=0;exitDy=0;exitPerimeter=0;" parent="1" edge="1">
          <mxGeometry width="50" height="50" relative="1" as="geometry">
            <mxPoint x="40.000000000000085" y="480.0000000000001" as="sourcePoint" />
            <mxPoint x="239.5" y="479.4067164179105" as="targetPoint" />
            <Array as="points">
              <mxPoint x="240" y="480" />
            </Array>
          </mxGeometry>
        </mxCell>
        <mxCell id="5fhwfnAbCSoT8pu6Vu3y-17" value="&lt;div style=&quot;text-align: justify;&quot;&gt;&lt;b style=&quot;background-color: transparent; color: light-dark(rgb(0, 0, 0), rgb(255, 255, 255)); font-size: 16px;&quot;&gt;Object type :&lt;/b&gt;&lt;span style=&quot;background-color: transparent; color: light-dark(rgb(0, 0, 0), rgb(255, 255, 255)); font-size: 16px;&quot;&gt; CSV files&lt;/span&gt;&lt;/div&gt;&lt;div style=&quot;text-align: justify;&quot;&gt;&lt;span style=&quot;font-size: 16px;&quot;&gt;&lt;br&gt;&lt;/span&gt;&lt;b style=&quot;background-color: transparent; color: light-dark(rgb(0, 0, 0), rgb(255, 255, 255)); font-size: 16px;&quot;&gt;Interface :&lt;/b&gt;&lt;span style=&quot;background-color: transparent; color: light-dark(rgb(0, 0, 0), rgb(255, 255, 255)); font-size: 16px;&quot;&gt; Files in folder&lt;/span&gt;&lt;/div&gt;" style="text;html=1;align=center;verticalAlign=middle;whiteSpace=wrap;rounded=0;" parent="1" vertex="1">
          <mxGeometry x="50" y="500" width="180" height="120" as="geometry" />
        </mxCell>
        <mxCell id="5fhwfnAbCSoT8pu6Vu3y-36" value="" style="shape=singleArrow;whiteSpace=wrap;html=1;fillColor=#e6d0de;strokeColor=#996185;gradientColor=#d5739d;" parent="1" vertex="1">
          <mxGeometry x="240" y="380" width="80.5" height="40" as="geometry" />
        </mxCell>
        <mxCell id="5fhwfnAbCSoT8pu6Vu3y-37" value="" style="shape=singleArrow;whiteSpace=wrap;html=1;fillColor=#e6d0de;strokeColor=#996185;gradientColor=#d5739d;" parent="1" vertex="1">
          <mxGeometry x="1160" y="380" width="80.5" height="40" as="geometry" />
        </mxCell>
        <mxCell id="5fhwfnAbCSoT8pu6Vu3y-24" value="" style="group" parent="1" vertex="1" connectable="0">
          <mxGeometry x="105" y="160" width="69" height="93" as="geometry" />
        </mxCell>
        <mxCell id="5fhwfnAbCSoT8pu6Vu3y-14" value="" style="image;aspect=fixed;html=1;points=[];align=center;fontSize=12;image=img/lib/azure2/general/Folder_Blank.svg;" parent="5fhwfnAbCSoT8pu6Vu3y-24" vertex="1">
          <mxGeometry width="69" height="56.00000000000001" as="geometry" />
        </mxCell>
        <mxCell id="5fhwfnAbCSoT8pu6Vu3y-15" value="" style="image;aspect=fixed;html=1;points=[];align=center;fontSize=12;image=img/lib/azure2/general/Files.svg;" parent="5fhwfnAbCSoT8pu6Vu3y-24" vertex="1">
          <mxGeometry x="41.56999999999999" y="33" width="27.43" height="30" as="geometry" />
        </mxCell>
        <mxCell id="5fhwfnAbCSoT8pu6Vu3y-18" value="&lt;b&gt;&lt;font style=&quot;font-size: 13px;&quot;&gt;ERP&lt;/font&gt;&lt;/b&gt;" style="text;html=1;align=center;verticalAlign=middle;whiteSpace=wrap;rounded=0;" parent="5fhwfnAbCSoT8pu6Vu3y-24" vertex="1">
          <mxGeometry x="5" y="63" width="60" height="30" as="geometry" />
        </mxCell>
        <mxCell id="5fhwfnAbCSoT8pu6Vu3y-39" value="" style="endArrow=none;html=1;rounded=0;" parent="1" edge="1">
          <mxGeometry width="50" height="50" relative="1" as="geometry">
            <mxPoint x="360" y="400.16999999999996" as="sourcePoint" />
            <mxPoint x="520" y="400.1700000000001" as="targetPoint" />
            <Array as="points">
              <mxPoint x="520" y="400.16999999999996" />
              <mxPoint x="560" y="400" />
            </Array>
          </mxGeometry>
        </mxCell>
        <mxCell id="5fhwfnAbCSoT8pu6Vu3y-40" value="" style="endArrow=none;html=1;rounded=0;" parent="1" edge="1">
          <mxGeometry width="50" height="50" relative="1" as="geometry">
            <mxPoint x="640" y="400" as="sourcePoint" />
            <mxPoint x="800" y="400" as="targetPoint" />
            <Array as="points">
              <mxPoint x="840" y="400" />
            </Array>
          </mxGeometry>
        </mxCell>
        <mxCell id="5fhwfnAbCSoT8pu6Vu3y-41" value="" style="endArrow=none;html=1;rounded=0;" parent="1" edge="1">
          <mxGeometry width="50" height="50" relative="1" as="geometry">
            <mxPoint x="920" y="400" as="sourcePoint" />
            <mxPoint x="1080" y="400" as="targetPoint" />
            <Array as="points">
              <mxPoint x="1080" y="400" />
              <mxPoint x="1120" y="400" />
            </Array>
          </mxGeometry>
        </mxCell>
        <mxCell id="5fhwfnAbCSoT8pu6Vu3y-42" value="" style="group" parent="1" vertex="1" connectable="0">
          <mxGeometry x="105" y="310" width="69" height="93" as="geometry" />
        </mxCell>
        <mxCell id="5fhwfnAbCSoT8pu6Vu3y-19" value="" style="image;aspect=fixed;html=1;points=[];align=center;fontSize=12;image=img/lib/azure2/general/Folder_Blank.svg;" parent="5fhwfnAbCSoT8pu6Vu3y-42" vertex="1">
          <mxGeometry width="69" height="56.00000000000001" as="geometry" />
        </mxCell>
        <mxCell id="5fhwfnAbCSoT8pu6Vu3y-20" value="" style="image;aspect=fixed;html=1;points=[];align=center;fontSize=12;image=img/lib/azure2/general/Files.svg;" parent="5fhwfnAbCSoT8pu6Vu3y-42" vertex="1">
          <mxGeometry x="41.56999999999999" y="33" width="27.43" height="30" as="geometry" />
        </mxCell>
        <mxCell id="5fhwfnAbCSoT8pu6Vu3y-21" value="&lt;span style=&quot;font-size: 13px;&quot;&gt;&lt;b&gt;CRM&lt;/b&gt;&lt;/span&gt;" style="text;html=1;align=center;verticalAlign=middle;whiteSpace=wrap;rounded=0;" parent="5fhwfnAbCSoT8pu6Vu3y-42" vertex="1">
          <mxGeometry x="5" y="63" width="60" height="30" as="geometry" />
        </mxCell>
        <mxCell id="5fhwfnAbCSoT8pu6Vu3y-43" value="&lt;div style=&quot;&quot;&gt;&lt;font style=&quot;font-size: 14px;&quot;&gt;&lt;b style=&quot;background-color: transparent; color: light-dark(rgb(0, 0, 0), rgb(255, 255, 255));&quot;&gt;Object type :&lt;/b&gt;&lt;span style=&quot;background-color: transparent; color: light-dark(rgb(0, 0, 0), rgb(255, 255, 255));&quot;&gt;&amp;nbsp;Tables&lt;/span&gt;&lt;/font&gt;&lt;/div&gt;&lt;div style=&quot;&quot;&gt;&lt;font style=&quot;font-size: 14px;&quot;&gt;&lt;br&gt;&lt;b style=&quot;background-color: transparent; color: light-dark(rgb(0, 0, 0), rgb(255, 255, 255));&quot;&gt;Load :&lt;/b&gt;&lt;/font&gt;&lt;/div&gt;&lt;div style=&quot;&quot;&gt;&lt;ul&gt;&lt;li&gt;&lt;span style=&quot;font-size: 14px;&quot;&gt;Batch Processing&lt;/span&gt;&lt;/li&gt;&lt;li&gt;&lt;span style=&quot;font-size: 14px;&quot;&gt;Full load&lt;/span&gt;&lt;/li&gt;&lt;li&gt;&lt;span style=&quot;font-size: 14px;&quot;&gt;Truncate and Insert&lt;/span&gt;&lt;/li&gt;&lt;/ul&gt;&lt;span style=&quot;font-size: 14px;&quot;&gt;&lt;b&gt;No Data Transformations&lt;/b&gt;&lt;/span&gt;&lt;/div&gt;&lt;div style=&quot;&quot;&gt;&lt;span style=&quot;font-size: 14px;&quot;&gt;&lt;b&gt;&lt;br&gt;&lt;/b&gt;&lt;/span&gt;&lt;/div&gt;&lt;div style=&quot;&quot;&gt;&lt;span style=&quot;font-size: 14px;&quot;&gt;&lt;b&gt;Data Model : &lt;/b&gt;None (as - is)&lt;/span&gt;&lt;/div&gt;" style="text;html=1;align=left;verticalAlign=middle;whiteSpace=wrap;rounded=0;" parent="1" vertex="1">
          <mxGeometry x="370" y="403" width="180" height="200" as="geometry" />
        </mxCell>
        <mxCell id="5fhwfnAbCSoT8pu6Vu3y-44" value="" style="group" parent="1" vertex="1" connectable="0">
          <mxGeometry x="690" y="250" width="100" height="110" as="geometry" />
        </mxCell>
        <mxCell id="5fhwfnAbCSoT8pu6Vu3y-26" value="" style="shape=datastore;whiteSpace=wrap;html=1;fillColor=#f5f5f5;gradientColor=#b3b3b3;strokeColor=#666666;" parent="5fhwfnAbCSoT8pu6Vu3y-44" vertex="1">
          <mxGeometry x="20" width="60" height="60" as="geometry" />
        </mxCell>
        <mxCell id="5fhwfnAbCSoT8pu6Vu3y-29" value="&lt;b&gt;Cleaned and standardized data&lt;/b&gt;" style="text;html=1;align=center;verticalAlign=middle;whiteSpace=wrap;rounded=0;" parent="5fhwfnAbCSoT8pu6Vu3y-44" vertex="1">
          <mxGeometry y="80" width="100" height="30" as="geometry" />
        </mxCell>
        <mxCell id="5fhwfnAbCSoT8pu6Vu3y-45" value="" style="group" parent="1" vertex="1" connectable="0">
          <mxGeometry x="980" y="235" width="80" height="110" as="geometry" />
        </mxCell>
        <mxCell id="5fhwfnAbCSoT8pu6Vu3y-27" value="" style="shape=datastore;whiteSpace=wrap;html=1;fillColor=#fff2cc;gradientColor=#ffd966;strokeColor=#d6b656;" parent="5fhwfnAbCSoT8pu6Vu3y-45" vertex="1">
          <mxGeometry x="10" width="60" height="60" as="geometry" />
        </mxCell>
        <mxCell id="5fhwfnAbCSoT8pu6Vu3y-30" value="&lt;b&gt;Business ready data&lt;/b&gt;" style="text;html=1;align=center;verticalAlign=middle;whiteSpace=wrap;rounded=0;" parent="5fhwfnAbCSoT8pu6Vu3y-45" vertex="1">
          <mxGeometry y="80" width="80" height="30" as="geometry" />
        </mxCell>
        <mxCell id="5fhwfnAbCSoT8pu6Vu3y-46" value="" style="group" parent="1" vertex="1" connectable="0">
          <mxGeometry x="430" y="250" width="60" height="100" as="geometry" />
        </mxCell>
        <mxCell id="5fhwfnAbCSoT8pu6Vu3y-25" value="" style="shape=datastore;whiteSpace=wrap;html=1;fillColor=none;fontColor=#ffffff;strokeColor=#6D1F00;" parent="5fhwfnAbCSoT8pu6Vu3y-46" vertex="1">
          <mxGeometry width="60" height="60" as="geometry" />
        </mxCell>
        <mxCell id="5fhwfnAbCSoT8pu6Vu3y-28" value="&lt;b&gt;Raw data&lt;/b&gt;" style="text;html=1;align=center;verticalAlign=middle;whiteSpace=wrap;rounded=0;" parent="5fhwfnAbCSoT8pu6Vu3y-46" vertex="1">
          <mxGeometry y="70" width="60" height="30" as="geometry" />
        </mxCell>
        <mxCell id="5fhwfnAbCSoT8pu6Vu3y-47" value="&lt;div style=&quot;&quot;&gt;&lt;font style=&quot;font-size: 14px;&quot;&gt;&lt;b style=&quot;background-color: transparent; color: light-dark(rgb(0, 0, 0), rgb(255, 255, 255));&quot;&gt;Object type :&lt;/b&gt;&lt;span style=&quot;background-color: transparent; color: light-dark(rgb(0, 0, 0), rgb(255, 255, 255));&quot;&gt;&amp;nbsp;Tables&lt;/span&gt;&lt;/font&gt;&lt;/div&gt;&lt;div style=&quot;&quot;&gt;&lt;font style=&quot;font-size: 14px;&quot;&gt;&lt;br&gt;&lt;b style=&quot;background-color: transparent; color: light-dark(rgb(0, 0, 0), rgb(255, 255, 255));&quot;&gt;Load :&lt;/b&gt;&lt;/font&gt;&lt;/div&gt;&lt;div style=&quot;&quot;&gt;&lt;ul&gt;&lt;li&gt;&lt;span style=&quot;font-size: 14px;&quot;&gt;Batch Processing&lt;/span&gt;&lt;/li&gt;&lt;li&gt;&lt;span style=&quot;font-size: 14px;&quot;&gt;Full load&lt;/span&gt;&lt;/li&gt;&lt;li&gt;&lt;span style=&quot;font-size: 14px;&quot;&gt;Truncate and Insert&lt;/span&gt;&lt;/li&gt;&lt;/ul&gt;&lt;span style=&quot;font-size: 14px;&quot;&gt;&lt;b&gt;Transformations :&lt;/b&gt;&lt;/span&gt;&lt;/div&gt;&lt;div style=&quot;&quot;&gt;&lt;ul&gt;&lt;li&gt;&lt;span style=&quot;font-size: 14px;&quot;&gt;Data Cleansing&lt;/span&gt;&lt;/li&gt;&lt;li&gt;&lt;span style=&quot;font-size: 14px;&quot;&gt;Data Standardization&lt;/span&gt;&lt;/li&gt;&lt;li&gt;&lt;span style=&quot;font-size: 14px;&quot;&gt;Data Normalization&lt;/span&gt;&lt;/li&gt;&lt;li&gt;&lt;span style=&quot;font-size: 14px;&quot;&gt;Derived Columns&lt;/span&gt;&lt;/li&gt;&lt;li&gt;&lt;span style=&quot;font-size: 14px;&quot;&gt;Data Enrichment&lt;/span&gt;&lt;/li&gt;&lt;/ul&gt;&lt;/div&gt;&lt;div style=&quot;&quot;&gt;&lt;span style=&quot;font-size: 14px;&quot;&gt;&lt;b&gt;&lt;br&gt;&lt;/b&gt;&lt;/span&gt;&lt;/div&gt;&lt;div style=&quot;&quot;&gt;&lt;span style=&quot;font-size: 14px;&quot;&gt;&lt;b&gt;Data Model : &lt;/b&gt;None (as - is)&lt;/span&gt;&lt;/div&gt;" style="text;html=1;align=left;verticalAlign=middle;whiteSpace=wrap;rounded=0;" parent="1" vertex="1">
          <mxGeometry x="647.5" y="415" width="185" height="290" as="geometry" />
        </mxCell>
        <mxCell id="5fhwfnAbCSoT8pu6Vu3y-48" value="&lt;div style=&quot;&quot;&gt;&lt;font style=&quot;font-size: 14px;&quot;&gt;&lt;b style=&quot;background-color: transparent; color: light-dark(rgb(0, 0, 0), rgb(255, 255, 255));&quot;&gt;Object type :&lt;/b&gt;&lt;span style=&quot;background-color: transparent; color: light-dark(rgb(0, 0, 0), rgb(255, 255, 255));&quot;&gt;&amp;nbsp;Views&lt;/span&gt;&lt;/font&gt;&lt;/div&gt;&lt;div style=&quot;&quot;&gt;&lt;font style=&quot;font-size: 14px;&quot;&gt;&lt;br&gt;&lt;b&gt;No Load&lt;/b&gt;&lt;/font&gt;&lt;/div&gt;&lt;div style=&quot;&quot;&gt;&lt;span style=&quot;font-size: 14px;&quot;&gt;&lt;b&gt;&lt;br&gt;&lt;/b&gt;&lt;/span&gt;&lt;/div&gt;&lt;div style=&quot;&quot;&gt;&lt;span style=&quot;font-size: 14px;&quot;&gt;&lt;b&gt;Transformations :&lt;/b&gt;&lt;/span&gt;&lt;/div&gt;&lt;div style=&quot;&quot;&gt;&lt;ul&gt;&lt;li&gt;&lt;span style=&quot;font-size: 14px;&quot;&gt;Data Integration&lt;/span&gt;&lt;/li&gt;&lt;li&gt;&lt;span style=&quot;font-size: 14px;&quot;&gt;Aggregations&lt;/span&gt;&lt;/li&gt;&lt;li&gt;&lt;span style=&quot;font-size: 14px;&quot;&gt;Business Logics&lt;/span&gt;&lt;/li&gt;&lt;/ul&gt;&lt;/div&gt;&lt;div style=&quot;&quot;&gt;&lt;span style=&quot;font-size: 14px;&quot;&gt;&lt;b&gt;&lt;br&gt;&lt;/b&gt;&lt;/span&gt;&lt;/div&gt;&lt;div style=&quot;&quot;&gt;&lt;span style=&quot;font-size: 14px;&quot;&gt;&lt;b&gt;Data Model :&amp;nbsp;&lt;/b&gt;&lt;/span&gt;&lt;/div&gt;&lt;div style=&quot;&quot;&gt;&lt;ul&gt;&lt;li&gt;&lt;span style=&quot;font-size: 14px;&quot;&gt;Star Schema&lt;/span&gt;&lt;/li&gt;&lt;li&gt;&lt;span style=&quot;font-size: 14px;&quot;&gt;Flat table&lt;/span&gt;&lt;/li&gt;&lt;li&gt;&lt;span style=&quot;font-size: 14px;&quot;&gt;Aggregated table&lt;/span&gt;&lt;/li&gt;&lt;/ul&gt;&lt;/div&gt;" style="text;html=1;align=left;verticalAlign=middle;whiteSpace=wrap;rounded=0;" parent="1" vertex="1">
          <mxGeometry x="930" y="403" width="180" height="290" as="geometry" />
        </mxCell>
        <mxCell id="5fhwfnAbCSoT8pu6Vu3y-56" value="" style="rounded=0;whiteSpace=wrap;html=1;fillColor=none;dashed=1;" parent="1" vertex="1">
          <mxGeometry x="40" y="80" width="200" height="680" as="geometry" />
        </mxCell>
        <mxCell id="5fhwfnAbCSoT8pu6Vu3y-2" value="Sources" style="rounded=0;whiteSpace=wrap;html=1;fontSize=24;" parent="1" vertex="1">
          <mxGeometry x="79.5" y="60" width="120" height="40" as="geometry" />
        </mxCell>
        <mxCell id="5fhwfnAbCSoT8pu6Vu3y-57" value="" style="group" parent="1" vertex="1" connectable="0">
          <mxGeometry x="1310.5" y="170" width="69.5" height="102" as="geometry" />
        </mxCell>
        <mxCell id="5fhwfnAbCSoT8pu6Vu3y-49" value="" style="image;aspect=fixed;html=1;points=[];align=center;fontSize=12;image=img/lib/azure2/analytics/Power_BI_Embedded.svg;" parent="5fhwfnAbCSoT8pu6Vu3y-57" vertex="1">
          <mxGeometry x="4.633333333333334" width="51" height="68" as="geometry" />
        </mxCell>
        <mxCell id="5fhwfnAbCSoT8pu6Vu3y-50" value="&lt;b&gt;BI and Reporting&lt;/b&gt;" style="text;html=1;align=center;verticalAlign=middle;whiteSpace=wrap;rounded=0;" parent="5fhwfnAbCSoT8pu6Vu3y-57" vertex="1">
          <mxGeometry y="72" width="69.5" height="30" as="geometry" />
        </mxCell>
        <mxCell id="5fhwfnAbCSoT8pu6Vu3y-58" value="" style="group" parent="1" vertex="1" connectable="0">
          <mxGeometry x="1304.25" y="365" width="85.75" height="115" as="geometry" />
        </mxCell>
        <mxCell id="5fhwfnAbCSoT8pu6Vu3y-51" value="" style="sketch=0;outlineConnect=0;fontColor=#232F3E;gradientColor=none;fillColor=#000000;strokeColor=none;dashed=0;verticalLabelPosition=bottom;verticalAlign=top;align=center;html=1;fontSize=12;fontStyle=0;aspect=fixed;pointerEvents=1;shape=mxgraph.aws4.redshift_query_editor_v20_light;" parent="5fhwfnAbCSoT8pu6Vu3y-58" vertex="1">
          <mxGeometry x="10.053448275862069" width="64" height="64" as="geometry" />
        </mxCell>
        <mxCell id="5fhwfnAbCSoT8pu6Vu3y-52" value="&lt;b&gt;Ad Hoc&amp;nbsp;&lt;/b&gt;&lt;div&gt;&lt;div&gt;&lt;b&gt;SQL queries&lt;/b&gt;&lt;/div&gt;&lt;/div&gt;" style="text;html=1;align=center;verticalAlign=middle;whiteSpace=wrap;rounded=0;" parent="5fhwfnAbCSoT8pu6Vu3y-58" vertex="1">
          <mxGeometry y="83.63636363636363" width="81.6103448275862" height="31.363636363636363" as="geometry" />
        </mxCell>
        <mxCell id="5fhwfnAbCSoT8pu6Vu3y-59" value="" style="group" parent="1" vertex="1" connectable="0">
          <mxGeometry x="1306" y="570" width="69" height="103" as="geometry" />
        </mxCell>
        <mxCell id="5fhwfnAbCSoT8pu6Vu3y-54" value="" style="sketch=0;points=[[0,0,0],[0.25,0,0],[0.5,0,0],[0.75,0,0],[1,0,0],[0,1,0],[0.25,1,0],[0.5,1,0],[0.75,1,0],[1,1,0],[0,0.25,0],[0,0.5,0],[0,0.75,0],[1,0.25,0],[1,0.5,0],[1,0.75,0]];outlineConnect=0;fontColor=#232F3E;fillColor=#01A88D;strokeColor=#ffffff;dashed=0;verticalLabelPosition=bottom;verticalAlign=top;align=center;html=1;fontSize=12;fontStyle=0;aspect=fixed;shape=mxgraph.aws4.resourceIcon;resIcon=mxgraph.aws4.machine_learning;" parent="5fhwfnAbCSoT8pu6Vu3y-59" vertex="1">
          <mxGeometry x="3" width="63" height="63" as="geometry" />
        </mxCell>
        <mxCell id="5fhwfnAbCSoT8pu6Vu3y-55" value="&lt;b&gt;Machine Learning&lt;/b&gt;" style="text;html=1;align=center;verticalAlign=middle;whiteSpace=wrap;rounded=0;" parent="5fhwfnAbCSoT8pu6Vu3y-59" vertex="1">
          <mxGeometry y="73" width="69" height="30" as="geometry" />
        </mxCell>
      </root>
    </mxGraphModel>
  </diagram>
</mxfile>
